<svg width="328" height="84" viewBox="0 0 328 84" fill="none" xmlns="http://www.w3.org/2000/svg">
<g filter="url(#filter0_b_0_763)">
<path d="M91.4329 47H89.4641L93.0487 36.8182H95.3256L98.9151 47H96.9464L94.2269 38.9062H94.1474L91.4329 47ZM91.4975 43.0078H96.8668V44.4893H91.4975V43.0078ZM102.778 47.1342C102.178 47.1342 101.641 46.9801 101.167 46.6719C100.693 46.3636 100.319 45.9162 100.044 45.3295C99.7686 44.7429 99.631 44.0303 99.631 43.1918C99.631 42.3433 99.7702 41.6274 100.049 41.044C100.33 40.4574 100.71 40.0149 101.187 39.7166C101.664 39.415 102.196 39.2642 102.783 39.2642C103.23 39.2642 103.598 39.3404 103.887 39.4929C104.175 39.642 104.404 39.8227 104.573 40.0348C104.742 40.2436 104.873 40.4408 104.966 40.6264H105.04V36.8182H106.845V47H105.075V45.7969H104.966C104.873 45.9825 104.739 46.1797 104.563 46.3885C104.387 46.594 104.155 46.7696 103.867 46.9155C103.578 47.0613 103.216 47.1342 102.778 47.1342ZM103.28 45.6577C103.661 45.6577 103.986 45.5549 104.255 45.3494C104.523 45.1406 104.727 44.8506 104.866 44.4794C105.005 44.1082 105.075 43.6757 105.075 43.1818C105.075 42.688 105.005 42.2588 104.866 41.8942C104.73 41.5296 104.528 41.2462 104.26 41.044C103.994 40.8419 103.668 40.7408 103.28 40.7408C102.879 40.7408 102.544 40.8452 102.276 41.054C102.007 41.2628 101.805 41.5511 101.669 41.919C101.533 42.2869 101.466 42.7079 101.466 43.1818C101.466 43.6591 101.533 44.085 101.669 44.4595C101.809 44.8307 102.012 45.1241 102.281 45.3395C102.553 45.5516 102.886 45.6577 103.28 45.6577ZM111.596 47.1342C110.997 47.1342 110.46 46.9801 109.986 46.6719C109.512 46.3636 109.137 45.9162 108.862 45.3295C108.587 44.7429 108.449 44.0303 108.449 43.1918C108.449 42.3433 108.589 41.6274 108.867 41.044C109.149 40.4574 109.528 40.0149 110.006 39.7166C110.483 39.415 111.015 39.2642 111.601 39.2642C112.049 39.2642 112.417 39.3404 112.705 39.4929C112.993 39.642 113.222 39.8227 113.391 40.0348C113.56 40.2436 113.691 40.4408 113.784 40.6264H113.858V36.8182H115.663V47H113.893V45.7969H113.784C113.691 45.9825 113.557 46.1797 113.381 46.3885C113.206 46.594 112.974 46.7696 112.685 46.9155C112.397 47.0613 112.034 47.1342 111.596 47.1342ZM112.099 45.6577C112.48 45.6577 112.805 45.5549 113.073 45.3494C113.341 45.1406 113.545 44.8506 113.684 44.4794C113.824 44.1082 113.893 43.6757 113.893 43.1818C113.893 42.688 113.824 42.2588 113.684 41.8942C113.549 41.5296 113.346 41.2462 113.078 41.044C112.813 40.8419 112.486 40.7408 112.099 40.7408C111.698 40.7408 111.363 40.8452 111.094 41.054C110.826 41.2628 110.624 41.5511 110.488 41.919C110.352 42.2869 110.284 42.7079 110.284 43.1818C110.284 43.6591 110.352 44.085 110.488 44.4595C110.627 44.8307 110.831 45.1241 111.099 45.3395C111.371 45.5516 111.704 45.6577 112.099 45.6577ZM122.853 42.5256V47H121.054V39.3636H122.774V40.6612H122.863C123.039 40.2337 123.319 39.8939 123.703 39.642C124.091 39.3902 124.57 39.2642 125.14 39.2642C125.667 39.2642 126.126 39.3769 126.517 39.6023C126.912 39.8277 127.217 40.1541 127.432 40.5817C127.651 41.0092 127.759 41.5279 127.755 42.1378V47H125.956V42.4162C125.956 41.9058 125.823 41.5064 125.558 41.218C125.296 40.9297 124.933 40.7855 124.469 40.7855C124.154 40.7855 123.874 40.8551 123.629 40.9943C123.387 41.1302 123.196 41.3274 123.057 41.5859C122.921 41.8445 122.853 42.1577 122.853 42.5256ZM132.966 47.1491C132.2 47.1491 131.539 46.9901 130.982 46.6719C130.428 46.3504 130.002 45.8963 129.704 45.3097C129.406 44.7197 129.257 44.0253 129.257 43.2266C129.257 42.4411 129.406 41.7517 129.704 41.1584C130.006 40.5618 130.427 40.0978 130.967 39.7663C131.507 39.4316 132.142 39.2642 132.871 39.2642C133.342 39.2642 133.786 39.3404 134.203 39.4929C134.624 39.642 134.996 39.8741 135.317 40.1889C135.642 40.5038 135.897 40.9048 136.083 41.392C136.268 41.8759 136.361 42.4527 136.361 43.1222V43.674H130.102V42.4609H134.636C134.633 42.1162 134.558 41.8097 134.412 41.5412C134.266 41.2694 134.063 41.0556 133.801 40.8999C133.542 40.7441 133.241 40.6662 132.896 40.6662C132.528 40.6662 132.205 40.7557 131.926 40.9347C131.648 41.1103 131.431 41.3423 131.275 41.6307C131.123 41.9157 131.045 42.2289 131.042 42.5703V43.6293C131.042 44.0734 131.123 44.4545 131.285 44.7727C131.448 45.0876 131.675 45.3295 131.966 45.4986C132.258 45.6643 132.599 45.7472 132.99 45.7472C133.252 45.7472 133.489 45.7107 133.701 45.6378C133.913 45.5616 134.097 45.4505 134.253 45.3047C134.409 45.1589 134.527 44.9782 134.606 44.7628L136.287 44.9517C136.181 45.3958 135.978 45.7836 135.68 46.1151C135.385 46.4432 135.007 46.6984 134.547 46.8807C134.086 47.0597 133.559 47.1491 132.966 47.1491ZM139.419 47L137.261 39.3636H139.096L140.438 44.733H140.507L141.88 39.3636H143.694L145.066 44.7031H145.141L146.463 39.3636H148.303L146.14 47H144.266L142.834 41.8395H142.73L141.298 47H139.419ZM156.363 47.1491C155.601 47.1491 154.946 46.9818 154.399 46.647C153.856 46.3123 153.436 45.8499 153.142 45.2599C152.85 44.6667 152.704 43.9839 152.704 43.2116C152.704 42.4361 152.853 41.7517 153.151 41.1584C153.45 40.5618 153.871 40.0978 154.414 39.7663C154.961 39.4316 155.607 39.2642 156.353 39.2642C156.973 39.2642 157.521 39.3786 157.999 39.6072C158.479 39.8326 158.862 40.1525 159.147 40.5668C159.432 40.9777 159.595 41.4583 159.634 42.0085H157.914C157.845 41.6406 157.679 41.334 157.417 41.0888C157.159 40.8402 156.812 40.7159 156.378 40.7159C156.01 40.7159 155.687 40.8153 155.409 41.0142C155.13 41.2098 154.913 41.4915 154.757 41.8594C154.605 42.2273 154.529 42.6681 154.529 43.1818C154.529 43.7022 154.605 44.1496 154.757 44.5241C154.91 44.8954 155.124 45.1821 155.399 45.3842C155.677 45.5831 156.003 45.6825 156.378 45.6825C156.643 45.6825 156.88 45.6328 157.089 45.5334C157.301 45.4306 157.478 45.2831 157.621 45.0909C157.763 44.8987 157.861 44.665 157.914 44.3899H159.634C159.591 44.9302 159.432 45.4091 159.157 45.8267C158.882 46.241 158.508 46.5658 158.034 46.8011C157.56 47.0331 157.003 47.1491 156.363 47.1491ZM163.31 47.1541C162.826 47.1541 162.39 47.0679 162.002 46.8956C161.618 46.7199 161.313 46.4614 161.087 46.12C160.865 45.7786 160.754 45.3577 160.754 44.8572C160.754 44.4264 160.834 44.0701 160.993 43.7884C161.152 43.5066 161.369 43.2812 161.644 43.1122C161.919 42.9432 162.229 42.8156 162.574 42.7294C162.922 42.6399 163.281 42.5753 163.653 42.5355C164.1 42.4891 164.463 42.4477 164.741 42.4112C165.02 42.3714 165.222 42.3118 165.348 42.2322C165.477 42.1494 165.542 42.0218 165.542 41.8494V41.8196C165.542 41.4451 165.431 41.1551 165.209 40.9496C164.987 40.7441 164.667 40.6413 164.249 40.6413C163.808 40.6413 163.459 40.7375 163.2 40.9297C162.945 41.1219 162.773 41.349 162.683 41.6108L161.003 41.3722C161.135 40.9081 161.354 40.5204 161.659 40.2088C161.964 39.8939 162.337 39.6586 162.778 39.5028C163.219 39.3438 163.706 39.2642 164.239 39.2642C164.607 39.2642 164.973 39.3073 165.338 39.3935C165.703 39.4796 166.036 39.6222 166.337 39.821C166.639 40.0166 166.881 40.2834 167.063 40.6214C167.249 40.9595 167.342 41.3821 167.342 41.8892V47H165.612V45.951H165.552C165.442 46.1631 165.288 46.362 165.089 46.5476C164.894 46.7299 164.647 46.8774 164.349 46.9901C164.054 47.0994 163.707 47.1541 163.31 47.1541ZM163.777 45.8317C164.138 45.8317 164.451 45.7604 164.717 45.6179C164.982 45.4721 165.186 45.2798 165.328 45.0412C165.474 44.8026 165.547 44.5424 165.547 44.2607V43.3608C165.491 43.4072 165.394 43.4503 165.259 43.4901C165.126 43.5298 164.977 43.5646 164.811 43.5945C164.645 43.6243 164.481 43.6508 164.319 43.674C164.156 43.6972 164.016 43.7171 163.896 43.7337C163.628 43.7701 163.388 43.8298 163.175 43.9126C162.963 43.9955 162.796 44.1115 162.673 44.2607C162.551 44.4065 162.489 44.5954 162.489 44.8274C162.489 45.1589 162.61 45.4091 162.852 45.5781C163.094 45.7472 163.402 45.8317 163.777 45.8317ZM172.964 39.3636V40.7557H168.575V39.3636H172.964ZM169.658 37.5341H171.458V44.7031C171.458 44.9451 171.495 45.1307 171.567 45.2599C171.644 45.3859 171.743 45.4721 171.866 45.5185C171.988 45.5649 172.124 45.5881 172.273 45.5881C172.386 45.5881 172.489 45.5798 172.582 45.5632C172.678 45.5466 172.751 45.5317 172.8 45.5185L173.104 46.9254C173.008 46.9586 172.87 46.995 172.691 47.0348C172.515 47.0746 172.3 47.0978 172.045 47.1044C171.594 47.1177 171.188 47.0497 170.827 46.9006C170.465 46.7481 170.179 46.5128 169.967 46.1946C169.758 45.8764 169.655 45.4787 169.658 45.0014V37.5341ZM177.768 47.1491C177.003 47.1491 176.341 46.9901 175.785 46.6719C175.231 46.3504 174.805 45.8963 174.507 45.3097C174.209 44.7197 174.059 44.0253 174.059 43.2266C174.059 42.4411 174.209 41.7517 174.507 41.1584C174.809 40.5618 175.229 40.0978 175.77 39.7663C176.31 39.4316 176.945 39.2642 177.674 39.2642C178.144 39.2642 178.589 39.3404 179.006 39.4929C179.427 39.642 179.798 39.8741 180.12 40.1889C180.445 40.5038 180.7 40.9048 180.885 41.392C181.071 41.8759 181.164 42.4527 181.164 43.1222V43.674H174.905V42.4609H179.439C179.435 42.1162 179.361 41.8097 179.215 41.5412C179.069 41.2694 178.865 41.0556 178.604 40.8999C178.345 40.7441 178.043 40.6662 177.699 40.6662C177.331 40.6662 177.008 40.7557 176.729 40.9347C176.451 41.1103 176.234 41.3423 176.078 41.6307C175.925 41.9157 175.848 42.2289 175.844 42.5703V43.6293C175.844 44.0734 175.925 44.4545 176.088 44.7727C176.25 45.0876 176.477 45.3295 176.769 45.4986C177.061 45.6643 177.402 45.7472 177.793 45.7472C178.055 45.7472 178.292 45.7107 178.504 45.6378C178.716 45.5616 178.9 45.4505 179.056 45.3047C179.212 45.1589 179.329 44.9782 179.409 44.7628L181.089 44.9517C180.983 45.3958 180.781 45.7836 180.483 46.1151C180.188 46.4432 179.81 46.6984 179.349 46.8807C178.889 47.0597 178.362 47.1491 177.768 47.1491ZM186.007 50.0227C185.361 50.0227 184.806 49.9349 184.342 49.7592C183.878 49.5869 183.505 49.3549 183.223 49.0632C182.942 48.7715 182.746 48.4484 182.637 48.0938L184.257 47.701C184.33 47.8501 184.436 47.9976 184.576 48.1435C184.715 48.2926 184.902 48.4152 185.137 48.5114C185.376 48.6108 185.676 48.6605 186.037 48.6605C186.548 48.6605 186.97 48.5362 187.305 48.2876C187.64 48.0424 187.807 47.638 187.807 47.0746V45.6278H187.718C187.625 45.8134 187.489 46.004 187.31 46.1996C187.134 46.3951 186.901 46.5592 186.609 46.6918C186.321 46.8243 185.958 46.8906 185.52 46.8906C184.934 46.8906 184.402 46.7531 183.924 46.478C183.45 46.1996 183.073 45.7853 182.791 45.2351C182.512 44.6816 182.373 43.9889 182.373 43.157C182.373 42.3184 182.512 41.6108 182.791 41.0341C183.073 40.4541 183.452 40.0149 183.929 39.7166C184.407 39.415 184.939 39.2642 185.525 39.2642C185.973 39.2642 186.341 39.3404 186.629 39.4929C186.921 39.642 187.153 39.8227 187.325 40.0348C187.497 40.2436 187.628 40.4408 187.718 40.6264H187.817V39.3636H189.592V47.1243C189.592 47.7772 189.436 48.3175 189.125 48.745C188.813 49.1726 188.387 49.4924 187.847 49.7045C187.307 49.9167 186.694 50.0227 186.007 50.0227ZM186.022 45.4787C186.404 45.4787 186.728 45.3859 186.997 45.2003C187.265 45.0147 187.469 44.7479 187.608 44.3999C187.748 44.0518 187.817 43.6342 187.817 43.147C187.817 42.6664 187.748 42.2455 187.608 41.8842C187.472 41.523 187.27 41.2429 187.002 41.044C186.737 40.8419 186.41 40.7408 186.022 40.7408C185.621 40.7408 185.287 40.8452 185.018 41.054C184.75 41.2628 184.547 41.5495 184.412 41.9141C184.276 42.2753 184.208 42.6863 184.208 43.147C184.208 43.6143 184.276 44.0237 184.412 44.375C184.551 44.723 184.755 44.9948 185.023 45.1903C185.295 45.3826 185.628 45.4787 186.022 45.4787ZM194.767 47.1491C194.022 47.1491 193.375 46.9851 192.828 46.657C192.282 46.3288 191.857 45.8698 191.556 45.2798C191.257 44.6899 191.108 44.0005 191.108 43.2116C191.108 42.4228 191.257 41.7318 191.556 41.1385C191.857 40.5452 192.282 40.0845 192.828 39.7564C193.375 39.4283 194.022 39.2642 194.767 39.2642C195.513 39.2642 196.159 39.4283 196.706 39.7564C197.253 40.0845 197.676 40.5452 197.974 41.1385C198.276 41.7318 198.426 42.4228 198.426 43.2116C198.426 44.0005 198.276 44.6899 197.974 45.2798C197.676 45.8698 197.253 46.3288 196.706 46.657C196.159 46.9851 195.513 47.1491 194.767 47.1491ZM194.777 45.7074C195.182 45.7074 195.52 45.5964 195.792 45.3743C196.063 45.1489 196.266 44.8473 196.398 44.4695C196.534 44.0916 196.602 43.6707 196.602 43.2067C196.602 42.7393 196.534 42.3168 196.398 41.9389C196.266 41.5578 196.063 41.2545 195.792 41.0291C195.52 40.8037 195.182 40.6911 194.777 40.6911C194.363 40.6911 194.018 40.8037 193.743 41.0291C193.471 41.2545 193.268 41.5578 193.132 41.9389C192.999 42.3168 192.933 42.7393 192.933 43.2067C192.933 43.6707 192.999 44.0916 193.132 44.4695C193.268 44.8473 193.471 45.1489 193.743 45.3743C194.018 45.5964 194.363 45.7074 194.777 45.7074ZM199.954 47V39.3636H201.699V40.6364H201.779C201.918 40.1955 202.156 39.8558 202.494 39.6172C202.836 39.3752 203.225 39.2543 203.663 39.2543C203.762 39.2543 203.873 39.2592 203.996 39.2692C204.122 39.2758 204.226 39.2874 204.309 39.304V40.9595C204.233 40.933 204.112 40.9098 203.946 40.8899C203.784 40.8667 203.626 40.8551 203.474 40.8551C203.146 40.8551 202.851 40.9264 202.589 41.0689C202.33 41.2081 202.127 41.402 201.977 41.6506C201.828 41.8991 201.754 42.1858 201.754 42.5107V47H199.954ZM206.856 49.8636C206.611 49.8636 206.384 49.8438 206.175 49.804C205.969 49.7675 205.805 49.7244 205.683 49.6747L206.1 48.2727C206.362 48.349 206.596 48.3854 206.801 48.3821C207.007 48.3788 207.187 48.3142 207.343 48.1882C207.502 48.0656 207.636 47.8601 207.746 47.5717L207.9 47.1591L205.131 39.3636H207.04L208.8 45.1307H208.879L210.644 39.3636H212.558L209.501 47.9247C209.358 48.3291 209.169 48.6754 208.934 48.9638C208.699 49.2554 208.41 49.4775 208.069 49.63C207.731 49.7857 207.326 49.8636 206.856 49.8636Z" fill="#A2A2B5"/>
<g clip-path="url(#clip0_0_763)">
<path d="M231 34C229.418 34 227.871 34.4692 226.555 35.3482C225.24 36.2273 224.214 37.4767 223.609 38.9385C223.003 40.4003 222.845 42.0089 223.154 43.5607C223.462 45.1126 224.224 46.538 225.343 47.6569C226.462 48.7757 227.887 49.5376 229.439 49.8463C230.991 50.155 232.6 49.9965 234.061 49.391C235.523 48.7855 236.773 47.7602 237.652 46.4446C238.531 45.129 239 43.5823 239 42C238.998 39.879 238.154 37.8455 236.654 36.3457C235.155 34.8459 233.121 34.0023 231 34V34ZM231 48.6667C229.681 48.6667 228.393 48.2757 227.296 47.5431C226.2 46.8106 225.345 45.7694 224.841 44.5512C224.336 43.333 224.204 41.9926 224.461 40.6994C224.719 39.4062 225.354 38.2183 226.286 37.286C227.218 36.3536 228.406 35.7187 229.699 35.4614C230.993 35.2042 232.333 35.3362 233.551 35.8408C234.769 36.3454 235.811 37.1999 236.543 38.2962C237.276 39.3925 237.667 40.6815 237.667 42C237.665 43.7675 236.962 45.4621 235.712 46.7119C234.462 47.9617 232.768 48.6647 231 48.6667ZM234.333 42C234.333 42.1768 234.263 42.3464 234.138 42.4714C234.013 42.5964 233.843 42.6667 233.667 42.6667H231.667V44.6667C231.667 44.8435 231.596 45.013 231.471 45.1381C231.346 45.2631 231.177 45.3333 231 45.3333C230.823 45.3333 230.654 45.2631 230.529 45.1381C230.404 45.013 230.333 44.8435 230.333 44.6667V42.6667H228.333C228.157 42.6667 227.987 42.5964 227.862 42.4714C227.737 42.3464 227.667 42.1768 227.667 42C227.667 41.8232 227.737 41.6536 227.862 41.5286C227.987 41.4036 228.157 41.3333 228.333 41.3333H230.333V39.3333C230.333 39.1565 230.404 38.987 230.529 38.8619C230.654 38.7369 230.823 38.6667 231 38.6667C231.177 38.6667 231.346 38.7369 231.471 38.8619C231.596 38.987 231.667 39.1565 231.667 39.3333V41.3333H233.667C233.843 41.3333 234.013 41.4036 234.138 41.5286C234.263 41.6536 234.333 41.8232 234.333 42Z" fill="#A2A2B5"/>
</g>
<rect x="0.5" y="0.5" width="327" height="83" rx="15.5" stroke="#4E4E61" stroke-dasharray="4 4"/>
</g>
<defs>
<filter id="filter0_b_0_763" x="-10" y="-10" width="348" height="104" filterUnits="userSpaceOnUse" color-interpolation-filters="sRGB">
<feFlood flood-opacity="0" result="BackgroundImageFix"/>
<feGaussianBlur in="BackgroundImageFix" stdDeviation="5"/>
<feComposite in2="SourceAlpha" operator="in" result="effect1_backgroundBlur_0_763"/>
<feBlend mode="normal" in="SourceGraphic" in2="effect1_backgroundBlur_0_763" result="shape"/>
</filter>
<clipPath id="clip0_0_763">
<rect width="16" height="16" fill="white" transform="translate(223 34)"/>
</clipPath>
</defs>
</svg>
