<svg width="12" height="12" viewBox="0 0 12 12" fill="none" xmlns="http://www.w3.org/2000/svg">
<path d="M9.35491 4.10499C9.30843 4.05813 9.25313 4.02093 9.1922 3.99555C9.13127 3.97016 9.06591 3.95709 8.99991 3.95709C8.9339 3.95709 8.86855 3.97016 8.80762 3.99555C8.74669 4.02093 8.69139 4.05813 8.64491 4.10499L6.35491 6.39499C6.30843 6.44185 6.25313 6.47905 6.1922 6.50443C6.13127 6.52982 6.06591 6.54289 5.99991 6.54289C5.9339 6.54289 5.86855 6.52982 5.80762 6.50443C5.74669 6.47905 5.69139 6.44185 5.64491 6.39499L3.35491 4.10499C3.30843 4.05813 3.25313 4.02093 3.1922 3.99555C3.13127 3.97016 3.06591 3.95709 2.99991 3.95709C2.9339 3.95709 2.86855 3.97016 2.80762 3.99555C2.74669 4.02093 2.69139 4.05813 2.64491 4.10499C2.55178 4.19867 2.49951 4.3254 2.49951 4.45749C2.49951 4.58958 2.55178 4.71631 2.64491 4.80999L4.93991 7.10499C5.22116 7.38589 5.60241 7.54366 5.99991 7.54366C6.39741 7.54366 6.77866 7.38589 7.05991 7.10499L9.35491 4.80999C9.44803 4.71631 9.50031 4.58958 9.50031 4.45749C9.50031 4.3254 9.44803 4.19867 9.35491 4.10499Z" fill="white"/>
</svg>
