<svg width="66" height="24" viewBox="0 0 66 24" fill="none" xmlns="http:www.w3.org/2000/svg">
<g clip-path="url(#clip0_145_111)">
<path d="M28.1251 13.9501C28.7464 13.9501 29.2501 13.4464 29.2501 12.8251C29.2501 12.2038 28.7464 11.7001 28.1251 11.7001C27.5037 11.7001 27.0001 12.2038 27.0001 12.8251C27.0001 13.4464 27.5037 13.9501 28.1251 13.9501Z" fill="#A2A2B5"/>
<path d="M38.25 3.45H27.75C26.7558 3.45119 25.8027 3.84666 25.0997 4.54966C24.3967 5.25267 24.0012 6.2058 24 7.2V13.2C24.0012 14.1942 24.3967 15.1473 25.0997 15.8503C25.8027 16.5533 26.7558 16.9488 27.75 16.95H38.25C39.2442 16.9488 40.1973 16.5533 40.9003 15.8503C41.6033 15.1473 41.9988 14.1942 42 13.2V7.2C41.9988 6.2058 41.6033 5.25267 40.9003 4.54966C40.1973 3.84666 39.2442 3.45119 38.25 3.45ZM27.75 4.95H38.25C38.8467 4.95 39.419 5.18705 39.841 5.60901C40.2629 6.03096 40.5 6.60326 40.5 7.2H25.5C25.5 6.60326 25.7371 6.03096 26.159 5.60901C26.581 5.18705 27.1533 4.95 27.75 4.95ZM38.25 15.45H27.75C27.1533 15.45 26.581 15.2129 26.159 14.791C25.7371 14.369 25.5 13.7967 25.5 13.2V8.7H40.5V13.2C40.5 13.7967 40.2629 14.369 39.841 14.791C39.419 15.2129 38.8467 15.45 38.25 15.45Z" fill="#A2A2B5"/>
<path fill-rule="evenodd" clip-rule="evenodd" d="M42 17.25L40.5 17.85C40.5 18.4468 40.2629 18.419 39.841 18.841C39.419 19.2629 38.8467 19.5 38.25 19.5H27.75C27.1533 19.5 26.581 19.2629 26.159 18.841C25.7371 18.419 25.5 18.4468 25.5 17.85L24 17.25C24.0012 18.2442 24.3967 19.1973 25.0997 19.9003C25.8027 20.6033 26.7558 20.9988 27.75 21H38.25C39.2442 20.9988 40.1973 20.6033 40.9003 19.9003C41.6033 19.1973 41.9988 18.2442 42 17.25Z" fill="#A2A2B5"/>
</g>
<defs>
<clipPath id="clip0_145_111">
<rect width="18" height="18" fill="white" transform="translate(24 3)"/>
</clipPath>
</defs>
</svg>
