<svg width="98" height="98" viewBox="0 0 98 98" fill="none" xmlns="http:www.w3.org/2000/svg">
<g filter="url(#filter0_d_99_38)">
<rect x="25" y="17" width="48" height="48" rx="24" fill="#FF8500"/>
<rect x="25" y="17" width="48" height="48" rx="24" fill="url(#paint0_radial_99_38)" fill-opacity="0.5"/>
<rect x="25.5" y="17.5" width="47" height="47" rx="23.5" stroke="url(#paint1_linear_99_38)" stroke-opacity="0.5"/>
</g>
<g clip-path="url(#clip0_99_38)">
<path d="M56.3333 40.3333H49.6667V33.6667C49.6667 33.4899 49.5964 33.3203 49.4714 33.1953C49.3464 33.0702 49.1768 33 49 33V33C48.8232 33 48.6536 33.0702 48.5286 33.1953C48.4036 33.3203 48.3333 33.4899 48.3333 33.6667V40.3333H41.6667C41.4899 40.3333 41.3203 40.4036 41.1953 40.5286C41.0702 40.6536 41 40.8232 41 41V41C41 41.1768 41.0702 41.3464 41.1953 41.4714C41.3203 41.5964 41.4899 41.6667 41.6667 41.6667H48.3333V48.3333C48.3333 48.5101 48.4036 48.6797 48.5286 48.8047C48.6536 48.9298 48.8232 49 49 49C49.1768 49 49.3464 48.9298 49.4714 48.8047C49.5964 48.6797 49.6667 48.5101 49.6667 48.3333V41.6667H56.3333C56.5101 41.6667 56.6797 41.5964 56.8047 41.4714C56.9298 41.3464 57 41.1768 57 41C57 40.8232 56.9298 40.6536 56.8047 40.5286C56.6797 40.4036 56.5101 40.3333 56.3333 40.3333Z" fill="white"/>
</g>
<defs>
<filter id="filter0_d_99_38" x="0" y="0" width="98" height="98" filterUnits="userSpaceOnUse" color-interpolation-filters="sRGB">
<feFlood flood-opacity="0" result="BackgroundImageFix"/>
<feColorMatrix in="SourceAlpha" type="matrix" values="0 0 0 0 0 0 0 0 0 0 0 0 0 0 0 0 0 0 127 0" result="hardAlpha"/>
<feOffset dy="8"/>
<feGaussianBlur stdDeviation="12.5"/>
<feComposite in2="hardAlpha" operator="out"/>
<feColorMatrix type="matrix" values="0 0 0 0 1 0 0 0 0 0.521569 0 0 0 0 0 0 0 0 0.5 0"/>
<feBlend mode="normal" in2="BackgroundImageFix" result="effect1_dropShadow_99_38"/>
<feBlend mode="normal" in="SourceGraphic" in2="effect1_dropShadow_99_38" result="shape"/>
</filter>
<radialGradient id="paint0_radial_99_38" cx="0" cy="0" r="1" gradientUnits="userSpaceOnUse" gradientTransform="translate(49 65) rotate(-90) scale(48)">
<stop offset="0.432536" stop-color="white" stop-opacity="0"/>
<stop offset="1" stop-color="#FF7F37"/>
</radialGradient>
<linearGradient id="paint1_linear_99_38" x1="25" y1="17" x2="49" y2="65" gradientUnits="userSpaceOnUse">
<stop stop-color="white"/>
<stop offset="1" stop-color="white" stop-opacity="0"/>
</linearGradient>
<clipPath id="clip0_99_38">
<rect width="16" height="16" fill="white" transform="translate(41 33)"/>
</clipPath>
</defs>
</svg>
