<svg width="40" height="40" viewBox="0 0 40 40" fill="none" xmlns="http:www.w3.org/2000/svg">
<rect width="40" height="40" rx="12" fill="#353542"/>
<path d="M15.6257 8.72727H16.7195V13.8835C16.7195 14.3499 16.6271 14.7488 16.4425 15.0803C16.2602 15.4117 16.0033 15.665 15.6719 15.8402C15.3404 16.013 14.9522 16.0994 14.5071 16.0994C14.0975 16.0994 13.7294 16.0249 13.4027 15.8757C13.0784 15.7266 12.8215 15.5099 12.6321 15.2259C12.4451 14.9394 12.3516 14.5914 12.3516 14.1818H13.4418C13.4418 14.383 13.4879 14.5571 13.5803 14.7038C13.675 14.8506 13.804 14.9654 13.9673 15.0483C14.133 15.1288 14.3224 15.169 14.5355 15.169C14.7675 15.169 14.964 15.1205 15.125 15.0234C15.2884 14.924 15.4126 14.7784 15.4979 14.5866C15.5831 14.3949 15.6257 14.1605 15.6257 13.8835V8.72727ZM21.8866 13.7379V10.5455H22.952V16H21.9079V15.0554H21.8511C21.7256 15.3466 21.5244 15.5893 21.2474 15.7834C20.9728 15.9751 20.6307 16.071 20.2211 16.071C19.8708 16.071 19.5606 15.9941 19.2907 15.8402C19.0232 15.6839 18.8125 15.4531 18.6586 15.1477C18.5071 14.8423 18.4314 14.4647 18.4314 14.0149V10.5455H19.4931V13.8871C19.4931 14.2588 19.5961 14.5547 19.8021 14.7749C20.0081 14.995 20.2756 15.1051 20.6047 15.1051C20.8035 15.1051 21.0012 15.0554 21.1977 14.956C21.3966 14.8565 21.5611 14.7062 21.6913 14.505C21.8239 14.3037 21.889 14.0481 21.8866 13.7379ZM25.6404 12.7614V16H24.5786V10.5455H25.5978V11.4332H25.6653C25.7907 11.1444 25.9872 10.9124 26.2548 10.7372C26.5246 10.562 26.8644 10.4744 27.2739 10.4744C27.6456 10.4744 27.9711 10.5526 28.2505 10.7088C28.5299 10.8627 28.7465 11.0923 28.9004 11.3977C29.0542 11.7031 29.1312 12.0807 29.1312 12.5305V16H28.0694V12.6584C28.0694 12.263 27.9664 11.9541 27.7604 11.7315C27.5545 11.5066 27.2716 11.3942 26.9117 11.3942C26.6655 11.3942 26.4465 11.4474 26.2548 11.554C26.0654 11.6605 25.915 11.8168 25.8038 12.0227C25.6949 12.2263 25.6404 12.4725 25.6404 12.7614Z" fill="#A2A2B5"/>
<path d="M12.9048 30V28.6676L16.4396 25.2024C16.7777 24.861 17.0594 24.5578 17.2848 24.2926C17.5102 24.0275 17.6792 23.7706 17.7919 23.522C17.9046 23.2734 17.9609 23.0083 17.9609 22.7266C17.9609 22.4051 17.888 22.13 17.7422 21.9013C17.5964 21.6693 17.3958 21.4903 17.1406 21.3643C16.8854 21.2384 16.5954 21.1754 16.2706 21.1754C15.9358 21.1754 15.6425 21.245 15.3906 21.3842C15.1387 21.5201 14.9432 21.714 14.804 21.9659C14.6681 22.2178 14.6001 22.5178 14.6001 22.8658H12.8452C12.8452 22.2195 12.9927 21.6577 13.2876 21.1804C13.5826 20.7031 13.9886 20.3336 14.5057 20.0717C15.026 19.8099 15.6226 19.679 16.2955 19.679C16.9782 19.679 17.5781 19.8066 18.0952 20.0618C18.6122 20.317 19.0133 20.6667 19.2983 21.1108C19.5866 21.5549 19.7308 22.062 19.7308 22.6321C19.7308 23.0133 19.6579 23.3878 19.5121 23.7557C19.3662 24.1236 19.1094 24.5312 18.7415 24.9787C18.3769 25.4261 17.8648 25.968 17.2053 26.6044L15.4503 28.3892V28.4588H19.8849V30H12.9048ZM25.1399 30.1392C24.477 30.1392 23.8838 30.0149 23.3601 29.7663C22.8364 29.5144 22.4205 29.1697 22.1122 28.7322C21.8073 28.2947 21.6449 27.7943 21.625 27.2308H23.4148C23.4479 27.6484 23.6286 27.9898 23.9567 28.255C24.2848 28.5168 24.6792 28.6477 25.1399 28.6477C25.5012 28.6477 25.8227 28.5649 26.1044 28.3991C26.3861 28.2334 26.6082 28.0031 26.7706 27.7081C26.933 27.4131 27.0125 27.0767 27.0092 26.6989C27.0125 26.3144 26.9313 25.973 26.7656 25.6747C26.5999 25.3764 26.3729 25.1428 26.0845 24.9737C25.7962 24.8014 25.4647 24.7152 25.0902 24.7152C24.7853 24.7119 24.4853 24.7682 24.1903 24.8842C23.8954 25.0002 23.6617 25.1527 23.4893 25.3416L21.8239 25.0682L22.3558 19.8182H28.2621V21.3594H23.8821L23.5888 24.0589H23.6484C23.8374 23.8369 24.1042 23.6529 24.4489 23.5071C24.7936 23.358 25.1714 23.2834 25.5824 23.2834C26.1989 23.2834 26.7491 23.4292 27.233 23.7209C27.7169 24.0092 28.098 24.407 28.3764 24.9141C28.6548 25.4212 28.794 26.0012 28.794 26.6541C28.794 27.3269 28.6383 27.9268 28.3267 28.4538C28.0185 28.9775 27.5893 29.3902 27.0391 29.6918C26.4922 29.9901 25.8591 30.1392 25.1399 30.1392Z" fill="#A2A2B5"/>
</svg>
