<svg width="32" height="32" viewBox="0 0 32 32" fill="none" xmlns="http://www.w3.org/2000/svg">
<g clip-path="url(#clip0_0_732)">
<path d="M8.99981 18C9.5521 18 9.99981 17.5523 9.99981 17C9.99981 16.4477 9.5521 16 8.99981 16C8.44753 16 7.99982 16.4477 7.99982 17C7.99982 17.5523 8.44753 18 8.99981 18Z" fill="#A2A2B5"/>
<path d="M5 14.0001C5.55228 14.0001 6 13.5524 6 13.0002C6 12.4479 5.55228 12.0002 5 12.0002C4.44772 12.0002 4 12.4479 4 13.0002C4 13.5524 4.44772 14.0001 5 14.0001Z" fill="#A2A2B5"/>
<path d="M8.99981 9.99984C9.5521 9.99984 9.99981 9.55213 9.99981 8.99985C9.99981 8.44756 9.5521 7.99985 8.99981 7.99985C8.44753 7.99985 7.99982 8.44756 7.99982 8.99985C7.99982 9.55213 8.44753 9.99984 8.99981 9.99984Z" fill="#A2A2B5"/>
<path d="M5 6C5.55228 6 6 5.55228 6 5C6 4.44772 5.55228 4 5 4C4.44772 4 4 4.44772 4 5C4 5.55228 4.44772 6 5 6Z" fill="#A2A2B5"/>
<path d="M26.9999 18C27.5521 18 27.9999 17.5523 27.9999 17C27.9999 16.4477 27.5521 16 26.9999 16C26.4476 16 25.9999 16.4477 25.9999 17C25.9999 17.5523 26.4476 18 26.9999 18Z" fill="#A2A2B5"/>
<path d="M23 14.0001C23.5523 14.0001 24 13.5524 24 13.0002C24 12.4479 23.5523 12.0002 23 12.0002C22.4477 12.0002 22 12.4479 22 13.0002C22 13.5524 22.4477 14.0001 23 14.0001Z" fill="#A2A2B5"/>
<path d="M26.9999 9.99984C27.5521 9.99984 27.9999 9.55213 27.9999 8.99985C27.9999 8.44756 27.5521 7.99985 26.9999 7.99985C26.4476 7.99985 25.9999 8.44756 25.9999 8.99985C25.9999 9.55213 26.4476 9.99984 26.9999 9.99984Z" fill="#A2A2B5"/>
<path d="M23 6C23.5523 6 24 5.55228 24 5C24 4.44772 23.5523 4 23 4C22.4477 4 22 4.44772 22 5C22 5.55228 22.4477 6 23 6Z" fill="#A2A2B5"/>
<path d="M17.9999 27.9998C18.5522 27.9998 18.9999 27.5521 18.9999 26.9998C18.9999 26.4476 18.5522 25.9998 17.9999 25.9998C17.4476 25.9998 16.9999 26.4476 16.9999 26.9998C16.9999 27.5521 17.4476 27.9998 17.9999 27.9998Z" fill="#A2A2B5"/>
<path d="M14 24C14.5523 24 15 23.5523 15 23C15 22.4477 14.5523 22 14 22C13.4477 22 13 22.4477 13 23C13 23.5523 13.4477 24 14 24Z" fill="#A2A2B5"/>
<path d="M17.9999 20.0002C18.5522 20.0002 18.9999 19.5524 18.9999 19.0002C18.9999 18.4479 18.5522 18.0002 17.9999 18.0002C17.4476 18.0002 16.9999 18.4479 16.9999 19.0002C16.9999 19.5524 17.4476 20.0002 17.9999 20.0002Z" fill="#A2A2B5"/>
<path d="M14 15.9999C14.5523 15.9999 15 15.5521 15 14.9999C15 14.4476 14.5523 13.9998 14 13.9998C13.4477 13.9998 13 14.4476 13 14.9999C13 15.5521 13.4477 15.9999 14 15.9999Z" fill="#A2A2B5"/>
<path d="M19.0001 7C18.4697 7 17.961 6.78929 17.5859 6.41421C17.2108 6.03914 17.0001 5.53043 17.0001 5C17.0001 4.73478 16.8948 4.48043 16.7072 4.29289C16.5197 4.10536 16.2653 4 16.0001 4C15.7349 4 15.4805 4.10536 15.293 4.29289C15.1055 4.48043 15.0001 4.73478 15.0001 5C15.0001 5.53043 14.7894 6.03914 14.4143 6.41421C14.0393 6.78929 13.5306 7 13.0001 7C12.7349 7 12.4806 7.10536 12.293 7.29289C12.1055 7.48043 12.0001 7.73478 12.0001 8C12.0001 8.26522 12.1055 8.51957 12.293 8.70711C12.4806 8.89464 12.7349 9 13.0001 9C13.5306 9 14.0393 9.21071 14.4143 9.58579C14.7894 9.96086 15.0001 10.4696 15.0001 11C15.0001 11.2652 15.1055 11.5196 15.293 11.7071C15.4805 11.8946 15.7349 12 16.0001 12C16.2653 12 16.5197 11.8946 16.7072 11.7071C16.8948 11.5196 17.0001 11.2652 17.0001 11C17.0001 10.4696 17.2108 9.96086 17.5859 9.58579C17.961 9.21071 18.4697 9 19.0001 9C19.2653 9 19.5197 8.89464 19.7072 8.70711C19.8948 8.51957 20.0001 8.26522 20.0001 8C20.0001 7.73478 19.8948 7.48043 19.7072 7.29289C19.5197 7.10536 19.2653 7 19.0001 7Z" fill="#A2A2B5"/>
<path d="M11 22.9998C10.4696 22.9998 9.96086 22.7891 9.58579 22.4141C9.21071 22.039 9 21.5303 9 20.9998C9 20.7346 8.89464 20.4803 8.70711 20.2927C8.51957 20.1052 8.26522 19.9998 8 19.9998C7.73478 19.9998 7.48043 20.1052 7.29289 20.2927C7.10536 20.4803 7 20.7346 7 20.9998C7 21.5303 6.78929 22.039 6.41421 22.4141C6.03914 22.7891 5.53043 22.9998 5 22.9998C4.73478 22.9998 4.48043 23.1052 4.29289 23.2927C4.10536 23.4803 4 23.7346 4 23.9998C4 24.2651 4.10536 24.5194 4.29289 24.7069C4.48043 24.8945 4.73478 24.9998 5 24.9998C5.53043 24.9998 6.03914 25.2106 6.41421 25.5856C6.78929 25.9607 7 26.4694 7 26.9998C7 27.265 7.10536 27.5194 7.29289 27.7069C7.48043 27.8945 7.73478 27.9998 8 27.9998C8.26522 27.9998 8.51957 27.8945 8.70711 27.7069C8.89464 27.5194 9 27.265 9 26.9998C9 26.4694 9.21071 25.9607 9.58579 25.5856C9.96086 25.2106 10.4696 24.9998 11 24.9998C11.2652 24.9998 11.5196 24.8945 11.7071 24.7069C11.8946 24.5194 12 24.2651 12 23.9998C12 23.7346 11.8946 23.4803 11.7071 23.2927C11.5196 23.1052 11.2652 22.9998 11 22.9998Z" fill="#A2A2B5"/>
<path d="M26.9999 22.9998C26.4694 22.9998 25.9607 22.7891 25.5857 22.4141C25.2106 22.039 24.9999 21.5303 24.9999 20.9998C24.9999 20.7346 24.8945 20.4803 24.707 20.2927C24.5194 20.1052 24.2651 19.9998 23.9999 19.9998C23.7347 19.9998 23.4803 20.1052 23.2928 20.2927C23.1052 20.4803 22.9999 20.7346 22.9999 20.9998C22.9999 21.5303 22.7892 22.039 22.4141 22.4141C22.039 22.7891 21.5303 22.9998 20.9999 22.9998C20.7347 22.9998 20.4803 23.1052 20.2928 23.2927C20.1052 23.4803 19.9999 23.7346 19.9999 23.9998C19.9999 24.2651 20.1052 24.5194 20.2928 24.7069C20.4803 24.8945 20.7347 24.9998 20.9999 24.9998C21.5303 24.9998 22.039 25.2106 22.4141 25.5856C22.7892 25.9607 22.9999 26.4694 22.9999 26.9998C22.9999 27.265 23.1052 27.5194 23.2928 27.7069C23.4803 27.8945 23.7347 27.9998 23.9999 27.9998C24.2651 27.9998 24.5194 27.8945 24.707 27.7069C24.8945 27.5194 24.9999 27.265 24.9999 26.9998C24.9999 26.4694 25.2106 25.9607 25.5857 25.5856C25.9607 25.2106 26.4694 24.9998 26.9999 24.9998C27.2651 24.9998 27.5194 24.8945 27.707 24.7069C27.8945 24.5194 27.9999 24.2651 27.9999 23.9998C27.9999 23.7346 27.8945 23.4803 27.707 23.2927C27.5194 23.1052 27.2651 22.9998 26.9999 22.9998Z" fill="#A2A2B5"/>
</g>
<defs>
<clipPath id="clip0_0_732">
<rect width="24" height="24" fill="white" transform="translate(4 4)"/>
</clipPath>
</defs>
</svg>
