<svg width="107" height="19" viewBox="0 0 107 19" fill="none" xmlns="http:www.w3.org/2000/svg">
<g clip-path="url(#clip0_0_929)">
<path d="M8.41573 19C6.18374 19 4.04317 18.0538 2.46491 16.3695C0.886655 14.6852 0 12.4008 0 10.0189H16.8315C16.8315 12.4008 15.9448 14.6852 14.3666 16.3695C12.7883 18.0538 10.6477 19 8.41573 19V19Z" fill="#A513FF"/>
<path d="M15.9102 8.97949C15.8818 6.87802 15.0797 4.87286 13.6772 3.39747C12.2746 1.92208 10.3843 1.09499 8.41496 1.09499C6.44557 1.09499 4.5553 1.92208 3.15275 3.39747C1.75021 4.87286 0.948071 6.87802 0.919744 8.97949H0C0 6.59756 0.886655 4.31318 2.46491 2.6289C4.04317 0.944614 6.18374 -0.00160599 8.41573 -0.00160599C10.6477 -0.00160599 12.7883 0.944614 14.3666 2.6289C15.9448 4.31318 16.8315 6.59756 16.8315 8.97949H15.9102Z" fill="#FF8500"/>
<path d="M8.41576 2.24781C10.0884 2.24956 11.692 2.9593 12.8749 4.22131C14.0577 5.48332 14.7232 7.19452 14.7252 8.97949H13.8039C13.78 7.47113 13.2017 6.03321 12.1936 4.97557C11.1856 3.91793 9.8286 3.32525 8.41499 3.32525C7.00138 3.32525 5.64435 3.91793 4.63633 4.97557C3.62832 6.03321 3.05001 7.47113 3.02603 8.97949H2.10629C2.10834 7.19452 2.7738 5.48332 3.95665 4.22131C5.13951 2.9593 6.74316 2.24956 8.41576 2.24781Z" fill="#FFD2CC"/>
</g>
<path d="M28.0611 15.4224V5.60809H24.7587V3.57753H33.5004V5.60809H30.198V15.4224H28.0611Z" fill="white"/>
<path d="M34.9668 15.4224V3.57753H39.888C40.6003 3.57753 41.2209 3.70726 41.7497 3.96672C42.2785 4.22618 42.6886 4.59281 42.98 5.06661C43.2714 5.5404 43.4171 6.0988 43.4171 6.74181V6.94487C43.4171 7.65556 43.2552 8.23088 42.9314 8.67084C42.6077 9.11079 42.2083 9.43229 41.7335 9.63535V9.93993C42.1652 9.96249 42.4997 10.1204 42.7372 10.4137C42.9746 10.6957 43.0933 11.0737 43.0933 11.5475V15.4224H40.9565V11.869C40.9565 11.5982 40.8863 11.3782 40.746 11.209C40.6165 11.0398 40.3953 10.9552 40.0823 10.9552H37.1036V15.4224H34.9668ZM37.1036 8.92466H39.6614C40.1686 8.92466 40.5625 8.78364 40.8431 8.50162C41.1345 8.20832 41.2802 7.82477 41.2802 7.35098V7.18176C41.2802 6.70797 41.1399 6.33006 40.8593 6.04804C40.5787 5.75474 40.1794 5.60809 39.6614 5.60809H37.1036V8.92466Z" fill="white"/>
<path d="M44.4293 15.4224L47.408 3.57753H51.1313L54.1099 15.4224H51.9083L51.2932 12.8165H47.2461L46.6309 15.4224H44.4293ZM47.7479 10.7522H50.7913L49.4153 4.982H49.1239L47.7479 10.7522Z" fill="white"/>
<path d="M59.6888 15.6593C58.2858 15.6593 57.1742 15.2532 56.354 14.441C55.5338 13.6175 55.1237 12.4443 55.1237 10.9214V8.07859C55.1237 6.55568 55.5338 5.38811 56.354 4.57589C57.1742 3.75239 58.2858 3.34064 59.6888 3.34064C61.081 3.34064 62.1548 3.74111 62.9103 4.54205C63.6765 5.33171 64.0596 6.42031 64.0596 7.80785V7.90938H61.9552V7.74017C61.9552 7.04075 61.7663 6.46543 61.3886 6.0142C61.0216 5.56296 60.455 5.33735 59.6888 5.33735C58.9333 5.33735 58.3398 5.57989 57.9081 6.06496C57.4764 6.55004 57.2606 7.20997 57.2606 8.04475V10.9552C57.2606 11.7787 57.4764 12.4386 57.9081 12.935C58.3398 13.4201 58.9333 13.6626 59.6888 13.6626C60.455 13.6626 61.0216 13.437 61.3886 12.9858C61.7663 12.5232 61.9552 11.9479 61.9552 11.2598V10.9552H64.0596V11.1921C64.0596 12.5796 63.6765 13.6739 62.9103 14.4748C62.1548 15.2645 61.081 15.6593 59.6888 15.6593Z" fill="white"/>
<path d="M65.812 15.4224V3.57753H67.9489V8.28165H68.2402L71.915 3.57753H74.6508L69.9238 9.41537L74.8127 15.4224H71.9959L68.2402 10.6168H67.9489V15.4224H65.812Z" fill="white"/>
<path d="M75.9567 15.4224V3.57753H78.0936V15.4224H75.9567Z" fill="white"/>
<path d="M79.9126 15.4224V12.5796L85.5138 5.84498V5.57424H80.0745V3.57753H87.7477V6.42031L82.1466 13.155V13.4257H87.7801V15.4224H79.9126Z" fill="white"/>
<path d="M89.5749 15.4224V3.57753H96.8596V5.60809H91.7117V8.43394H96.4063V10.4645H91.7117V13.3919H96.9567V15.4224H89.5749Z" fill="white"/>
<path d="M98.5497 15.4224V3.57753H103.471C104.183 3.57753 104.804 3.70726 105.333 3.96672C105.861 4.22618 106.272 4.59281 106.563 5.06661C106.854 5.5404 107 6.0988 107 6.74181V6.94487C107 7.65556 106.838 8.23088 106.514 8.67084C106.191 9.11079 105.791 9.43229 105.316 9.63535V9.93993C105.748 9.96249 106.083 10.1204 106.32 10.4137C106.558 10.6957 106.676 11.0737 106.676 11.5475V15.4224H104.539V11.869C104.539 11.5982 104.469 11.3782 104.329 11.209C104.199 11.0398 103.978 10.9552 103.665 10.9552H100.687V15.4224H98.5497ZM100.687 8.92466H103.244C103.752 8.92466 104.145 8.78364 104.426 8.50162C104.717 8.20832 104.863 7.82477 104.863 7.35098V7.18176C104.863 6.70797 104.723 6.33006 104.442 6.04804C104.162 5.75474 103.762 5.60809 103.244 5.60809H100.687V8.92466Z" fill="white"/>
<defs>
<clipPath id="clip0_0_929">
<rect width="16.8315" height="19" fill="white" transform="matrix(1 0 0 -1 0 19)"/>
</clipPath>
</defs>
</svg>
