<svg width="40" height="40" viewBox="0 0 40 40" fill="none" xmlns="http:www.w3.org/2000/svg">
<rect width="40" height="40" rx="12" fill="#ACDCF5"/>
<g clip-path="url(#clip0_0_887)">
<path d="M22.7077 23.4722L28.0744 18.2344C26.9597 13.7982 22.5322 11.1242 18.1854 12.2619C16.2279 12.7743 14.5277 14.0127 13.4167 15.7354C13.4997 15.7333 22.7077 23.4722 22.7077 23.4722Z" fill="#0364B8"/>
<path d="M16.9143 16.7215L16.9141 16.7224C15.8886 16.0742 14.706 15.7316 13.4997 15.7333C13.4718 15.7333 13.4445 15.7351 13.4166 15.7354C9.82868 15.7808 6.95607 18.7859 7.00049 22.4477C7.0166 23.7759 7.42327 25.0686 8.16777 26.1582L16.208 25.1305L22.3722 20.0579L16.9143 16.7215Z" fill="#0078D4"/>
<path d="M28.0744 18.2344C27.9565 18.2263 27.8379 18.2208 27.718 18.2208C26.998 18.2201 26.2855 18.3701 25.6247 18.6617L25.6245 18.6612L22.3723 20.0579L25.9576 24.5778L32.3674 26.1679C33.7506 23.5472 32.7902 20.2784 30.2223 18.8667C29.5588 18.502 28.8264 18.2864 28.0745 18.2344V18.2344H28.0744Z" fill="#1490DF"/>
<path d="M8.16779 26.1582C9.38179 27.9395 11.3736 29.0011 13.4998 29H27.7179C29.6602 29.0006 31.4459 27.9128 32.3673 26.1679L22.3722 20.0579L8.16779 26.1582Z" fill="#28A8EA"/>
</g>
<defs>
<clipPath id="clip0_0_887">
<rect width="26" height="17" fill="white" transform="translate(7 12)"/>
</clipPath>
</defs>
</svg>
