<svg width="40" height="40" viewBox="0 0 40 40" fill="none" xmlns="http:www.w3.org/2000/svg">
<rect width="40" height="40" rx="12" fill="#1ED760"/>
<g clip-path="url(#clip0_0_663)">
<path d="M19.4995 9.03793C13.1678 9.03793 8.03467 14.1709 8.03467 20.5026C8.03467 26.8346 13.1678 31.9671 19.4995 31.9671C25.8319 31.9671 30.9644 26.8346 30.9644 20.5026C30.9644 14.1713 25.8319 9.03848 19.4994 9.03848L19.4995 9.03793ZM24.7572 25.5733C24.5518 25.9101 24.111 26.0169 23.7742 25.8101C21.0824 24.1659 17.6937 23.7935 13.7029 24.7053C13.3184 24.7929 12.935 24.552 12.8474 24.1673C12.7594 23.7826 12.9994 23.3992 13.3849 23.3116C17.7522 22.3134 21.4983 22.7435 24.5203 24.5903C24.8571 24.797 24.9639 25.2365 24.7572 25.5733ZM26.1605 22.4512C25.9017 22.8722 25.3513 23.005 24.931 22.7462C21.8493 20.8516 17.1517 20.303 13.5066 21.4095C13.0339 21.5523 12.5346 21.2858 12.3911 20.8139C12.2487 20.3412 12.5153 19.8429 12.9872 19.6991C17.1509 18.4358 22.3271 19.0477 25.8661 21.2225C26.2864 21.4812 26.4192 22.0316 26.1605 22.4513V22.4512ZM26.2809 19.2005C22.5859 17.0058 16.4895 16.804 12.9616 17.8747C12.3951 18.0465 11.796 17.7267 11.6243 17.1602C11.4526 16.5934 11.7722 15.9947 12.3391 15.8225C16.3889 14.5931 23.1212 14.8306 27.3753 17.3561C27.886 17.6586 28.053 18.3167 27.7505 18.8255C27.4493 19.3351 26.7894 19.5031 26.2815 19.2005H26.2809Z" fill="white"/>
</g>
<defs>
<clipPath id="clip0_0_663">
<rect width="23" height="23" fill="white" transform="translate(8 9)"/>
</clipPath>
</defs>
</svg>
