<svg width="40" height="40" viewBox="0 0 40 40" fill="none" xmlns="http:www.w3.org/2000/svg">
<rect width="40" height="40" rx="12" fill="#FF0000"/>
<g clip-path="url(#clip0_0_877)">
<path d="M32.4851 13.66C32.1968 12.62 31.3525 11.8 30.2816 11.52C28.3253 11 20.4999 11 20.4999 11C20.4999 11 12.6746 11 10.7183 11.5C9.66803 11.78 8.80313 12.62 8.51482 13.66C8 15.56 8 19.5 8 19.5C8 19.5 8 23.46 8.51482 25.34C8.80313 26.38 9.64744 27.2 10.7183 27.48C12.6952 28 20.4999 28 20.4999 28C20.4999 28 28.3253 28 30.2816 27.5C31.3525 27.22 32.1968 26.4 32.4851 25.36C32.9999 23.46 32.9999 19.52 32.9999 19.52C32.9999 19.52 33.0205 15.56 32.4851 13.66Z" fill="white"/>
<path d="M24.5156 19.5L18.0082 15.86V23.14L24.5156 19.5Z" fill="#FF0000"/>
</g>
<defs>
<clipPath id="clip0_0_877">
<rect width="25" height="17" fill="white" transform="translate(8 11)"/>
</clipPath>
</defs>
</svg>
